<svg height="480pt" viewBox="0 0 480 480.008" width="480pt" xmlns="http://www.w3.org/2000/svg"><path d="m216.003906 120.007812c-3.113281 0-5.953125-1.816406-7.265625-4.648437l-42.007812-91.023437-24.070313 36.113281c-1.488281 2.222656-3.984375 3.558593-6.65625 3.558593h-104v-16h99.71875l29.625-44.441406c1.609375-2.40625 4.375-3.773437 7.28125-3.535156 2.886719.226562 5.429688 1.992188 6.648438 4.625l40.207031 87.128906 25.09375-62.746094c1.105469-2.757812 3.648437-4.679687 6.601563-4.984374 2.945312-.359376 5.832031 1.042968 7.488281 3.511718l24.71875 37.089844 33.632812-60.527344c1.351563-2.441406 3.878907-4 6.664063-4.113281 2.847656-.183594 5.433594 1.230469 6.984375 3.550781l29.617187 44.441406h83.71875v16h-88c-2.671875 0-5.167968-1.335937-6.65625-3.558593l-24.71875-37.089844-33.632812 60.527344c-1.351563 2.441406-3.878906 4-6.664063 4.113281-2.894531.265625-5.433593-1.230469-6.984375-3.550781l-23.558594-35.34375-26.351562 65.871093c-1.183594 2.96875-4.027344 4.945313-7.226562 5.03125-.070313 0-.144532 0-.207032 0zm0 0" fill="#5b6673"/><path d="m480.003906 56.007812c0 13.253907-10.746094 24-24 24s-24-10.746093-24-24c0-13.253906 10.746094-24 24-24s24 10.746094 24 24zm0 0" fill="#eebc5a"/><path d="m48.003906 56.007812c0 13.253907-10.746094 24-24 24s-23.99999975-10.746093-23.99999975-24c0-13.253906 10.74609375-24 23.99999975-24s24 10.746094 24 24zm0 0" fill="#699ce6"/><path d="m144.003906 144.007812v176c0 53.015626 42.984375 96 96 96s96-42.984374 96-96v-176h64v176c0 88.367188-71.632812 160-160 160-88.367187 0-160-71.632812-160-160v-176zm0 0" fill="#ca5057"/><path d="m228.003906 479.398438c82.742188-6.152344 148-75.078126 148-159.390626v-176h-40v176c0 53.015626-42.984375 96-96 96-4.070312 0-8.0625-.335937-12-.832031-3.9375.496094-7.929687.832031-12 .832031-53.015625 0-96-42.984374-96-96v-176h-40v176c0 84.3125 65.257813 153.238282 148 159.390626zm0 0" fill="#dc6068"/><path d="m64.003906 80.007812h96v64h-96zm0 0" fill="#bab8b9"/><path d="m320.003906 80.007812h96v64h-96zm0 0" fill="#bab8b9"/><path d="m64.003906 80.007812h72v64h-72zm0 0" fill="#d9d7d8"/><path d="m320.003906 80.007812h72v64h-72zm0 0" fill="#d9d7d8"/><path d="m192.003906 336.007812 32-56h-48l48-88h72l-56 64h64zm0 0" fill="#eebc5a"/><path d="m200.003906 280.007812h24l-15.449218 27.03125 71.449218-51.03125h-64l56-64h-48l-48 88zm0 0" fill="#f8cf6a"/></svg>