<svg height="512pt" viewBox="0 0 512 512" width="512pt" xmlns="http://www.w3.org/2000/svg"><path d="m512 256c0 82.261719-38.800781 155.46875-99.109375 202.289062-9.152344 7.109376-18.789063 13.609376-28.871094 19.441407-37.660156 21.800781-81.378906 34.269531-128.019531 34.269531s-90.359375-12.46875-128.019531-34.269531c-10.082031-5.832031-19.71875-12.332031-28.871094-19.441407-60.308594-46.820312-99.109375-120.027343-99.109375-202.289062 0-141.378906 114.621094-256 256-256s256 114.621094 256 256zm0 0" fill="#8cd2e5"/><g fill="#69b8d4"><path d="m49.988281 124.410156c5.347657 0 9.683594-4.335937 9.683594-9.683594v-92.9375c0-5.347656-4.335937-9.683593-9.683594-9.683593-5.347656 0-9.683593 4.335937-9.683593 9.683593v92.9375c0 5.347657 4.335937 9.683594 9.683593 9.683594zm0 0"/><path d="m97.15625 142.367188c5.351562 0 9.6875-4.335938 9.6875-9.683594v-92.9375c0-5.347656-4.335938-9.683594-9.6875-9.683594-5.347656 0-9.683594 4.335938-9.683594 9.683594v92.9375c.003906 5.347656 4.335938 9.683594 9.683594 9.683594zm0 0"/><path d="m350.152344 233.265625c5.351562 0 9.6875-4.335937 9.6875-9.683594v-92.9375c0-5.347656-4.335938-9.683593-9.6875-9.683593-5.347656 0-9.683594 4.335937-9.683594 9.683593v92.9375c0 5.347657 4.335938 9.683594 9.683594 9.683594zm0 0"/><path d="m392.71875 255.878906c5.347656 0 9.683594-4.335937 9.683594-9.683594v-50.253906c0-5.347656-4.335938-9.683594-9.683594-9.683594s-9.683594 4.335938-9.683594 9.683594v50.253906c0 5.347657 4.335938 9.683594 9.683594 9.683594zm0 0"/><path d="m134.070312 112.4375c5.347657 0 9.683594-4.335938 9.683594-9.683594v-92.9375c0-5.347656-4.335937-9.683594-9.683594-9.683594-5.347656 0-9.683593 4.335938-9.683593 9.683594v92.9375c0 5.347656 4.335937 9.683594 9.683593 9.683594zm0 0"/></g><path d="m412.890625 458.289062c-9.152344 7.109376-18.789063 13.609376-28.871094 19.441407-37.660156 21.800781-81.378906 34.269531-128.019531 34.269531-27.25 0-53.511719-4.261719-78.140625-12.148438-17.519531-5.613281-34.230469-13.0625-49.878906-22.121093-10.082031-5.832031-19.71875-12.332031-28.871094-19.441407l156.890625-156.398437zm0 0" fill="#f73e3e"/><path d="m256 301.890625-78.140625 197.960937c-17.519531-5.613281-34.230469-13.0625-49.878906-22.121093-10.082031-5.832031-19.71875-12.332031-28.871094-19.441407zm0 0" fill="#d82525"/><path d="m480.148438 231.96875-439.214844 164.140625c-6.707032 2.507813-14.179688-.898437-16.6875-7.605469-2.507813-6.710937.898437-14.183594 7.605468-16.691406l439.214844-164.140625c6.707032-2.507813 14.179688.898437 16.6875 7.605469 2.507813 6.710937-.898437 14.183594-7.605468 16.691406zm0 0" fill="#8c5841"/><path d="m287.664062 301.890625c0 17.488281-14.175781 31.667969-31.664062 31.667969s-31.664062-14.179688-31.664062-31.667969 14.175781-31.664063 31.664062-31.664063 31.664062 14.175782 31.664062 31.664063zm0 0" fill="#564d47"/><path d="m269.84375 301.890625c0 7.648437-6.199219 13.84375-13.84375 13.84375s-13.84375-6.195313-13.84375-13.84375c0-7.644531 6.199219-13.84375 13.84375-13.84375s13.84375 6.199219 13.84375 13.84375zm0 0" fill="#2b2b2b"/><path d="m185.792969 252.496094c0 48.953125-39.683594 88.636718-88.636719 88.636718-48.949219 0-88.632812-39.683593-88.632812-88.636718s39.683593-88.636719 88.632812-88.636719c48.953125 0 88.636719 39.683594 88.636719 88.636719zm0 0" fill="#ffbb16"/><path d="m124.417969 336.855469c-8.582031 2.773437-17.746094 4.269531-27.242188 4.269531-48.96875 0-88.652343-39.683594-88.652343-88.628906 0-48.941406 39.683593-88.625 88.652343-88.625 9.496094 0 18.660157 1.492187 27.242188 4.265625-35.609375 11.5-61.382813 44.917969-61.382813 84.359375s25.773438 72.859375 61.382813 84.359375zm0 0" fill="#ff931f"/><path d="m474.015625 88.636719c0 48.953125-39.683594 88.636719-88.636719 88.636719s-88.636718-39.683594-88.636718-88.636719 39.683593-88.636719 88.636718-88.636719 88.636719 39.683594 88.636719 88.636719zm0 0" fill="#ffbb16"/><path d="m412.636719 172.996094c-8.582031 2.773437-17.742188 4.265625-27.242188 4.265625-48.96875 0-88.652343-39.683594-88.652343-88.625 0-48.945313 39.683593-88.6289065 88.652343-88.6289065 9.5 0 18.660157 1.4960935 27.242188 4.2656255-35.609375 11.5-61.382813 44.917968-61.382813 84.359374 0 39.445313 25.773438 72.863282 61.382813 84.363282zm0 0" fill="#ff931f"/><path d="m420.605469 119.3125v73.910156c0 2.734375 2.214843 4.949219 4.949219 4.949219h39.164062c2.730469 0 4.945312-2.214844 4.945312-4.949219v-73.910156c0-2.734375 2.214844-4.945312 4.945313-4.945312h16.398437c4.40625 0 6.613282-5.328126 3.496094-8.445313l-45.871094-45.871094c-1.933593-1.933593-5.0625-1.933593-6.996093 0l-45.871094 45.871094c-3.117187 3.117187-.910156 8.445313 3.496094 8.445313h16.398437c2.734375 0 4.945313 2.214843 4.945313 4.945312zm0 0" fill="#3d72a3"/><path d="m75.355469 197.773438v-73.914063c0-2.730469-2.214844-4.945313-4.945313-4.945313h-39.164062c-2.730469 0-4.945313 2.214844-4.945313 4.945313v73.914063c0 2.730468-2.214843 4.945312-4.945312 4.945312h-16.398438c-4.40625 0-6.613281 5.328125-3.496093 8.441406l45.871093 45.875c1.929688 1.929688 5.0625 1.929688 6.996094 0l45.871094-45.875c3.117187-3.113281.910156-8.441406-3.496094-8.441406h-16.402344c-2.730469 0-4.945312-2.214844-4.945312-4.945312zm0 0" fill="#3d72a3"/></svg>